<?xml version="1.0" encoding="utf-8"?>
<!-- Generator: Adobe Illustrator 15.0.0, SVG Export Plug-In . SVG Version: 6.00 Build 0)  -->
<!DOCTYPE svg PUBLIC "-//W3C//DTD SVG 1.1//EN" "http://www.w3.org/Graphics/SVG/1.1/DTD/svg11.dtd">
<svg version="1.1" id="图层_1" xmlns="http://www.w3.org/2000/svg" xmlns:xlink="http://www.w3.org/1999/xlink" x="0px" y="0px"
	 width="284px" height="170.5px" viewBox="0 0 284 170.5" enable-background="new 0 0 284 170.5" xml:space="preserve">
<g>
	<path d="M65.48,35.172v-9.105h7.172V13.938h9.105v12.129h6.328v9.105h-6.328v7.98l1.934-1.652l5.766,5.238v-5.52h41.906v9.387
		H115.93v18.738c0.375,6.234-3.023,9.352-10.195,9.352c-3.493,0.188-7.172,0.281-11.039,0.281c-0.188-1.289-0.551-3.305-1.09-6.047
		c-0.188-1.102-0.375-2.027-0.563-2.777c2.765,0,5.437,0,8.016,0c3.305,0.188,4.863-1.09,4.676-3.832V50.605H91.672l-4.957,5.52
		l-4.957-5.238V79.82h-9.105V53.91c-1.828,4.407-4.031,8.355-6.609,11.848c-0.188-0.726-0.375-1.921-0.563-3.586
		c-0.54-4.781-0.997-8.179-1.371-10.195c3.117-4.219,5.871-9.82,8.262-16.805H65.48z M90.301,37.105V21.672h14.871l-1.934-6.891
		l11.039-0.844c0.539,2.766,1.09,5.344,1.652,7.734h14.063v15.434h-9.387v-6.363h-21.48v6.363H90.301z"/>
	<path d="M137.48,35.172v-8.824h6.082v-12.41h8.824v12.41h4.676v8.824h-4.676v5.766c0.727,0.75,1.91,1.77,3.551,3.059
		c1.289,0.914,2.215,1.641,2.777,2.18V42.59h42.996v6.082h-4.957l4.676,5.52c-2.391,1.289-4.781,2.484-7.172,3.586
		c1.477,5.321,4.699,9.54,9.668,12.656c-0.375,0.563-1.207,1.57-2.496,3.023c-1.102,1.664-1.922,2.777-2.461,3.34
		c-5.719-3.867-9.305-9.293-10.758-16.277c-0.188,0-0.469,0.094-0.844,0.281c-0.539,0.188-0.902,0.364-1.09,0.527
		c0.727,2.391,1.09,4.969,1.09,7.734c0.375,6.797-2.93,10.289-9.914,10.477c-2.391,0.188-4.781,0.281-7.172,0.281
		c-0.375-2.203-0.832-4.5-1.371-6.891c-1.828,0.914-4.863,2.285-9.105,4.113c3.141-1.102,2.777-0.914-1.09,0.563
		c-1.102-2.203-2.297-4.137-3.586-5.801c8.625-2.391,16.066-5.507,22.324-9.352c0-0.375-0.094-0.75-0.281-1.125
		c-0.188-0.539-0.375-0.902-0.563-1.09c-4.758,3.117-10.629,5.695-17.613,7.734c-0.188-0.563-0.832-1.851-1.934-3.867
		c-0.375-0.726-0.656-1.277-0.844-1.652c7.172-1.664,13.148-3.691,17.93-6.082c-0.563-0.726-1.113-1.371-1.652-1.934
		c-3.68,1.665-8.004,3.141-12.973,4.43c-0.164-0.188-0.34-0.645-0.527-1.371c-0.563-0.75-1.301-2.227-2.215-4.43l-1.09,2.215
		c-1.102-1.289-2.203-2.484-3.305-3.586V79.82h-8.824V54.191c-1.664,4.031-3.598,7.98-5.801,11.848
		c-0.188-2.391-0.645-6.527-1.371-12.41c-0.188-0.726-0.281-1.277-0.281-1.652c3.117-4.593,5.508-10.195,7.172-16.805H137.48z
		 M156.781,52.785c7.359-1.102,13.148-2.473,17.367-4.113h-15.152L156.781,52.785z M157.625,24.414v-6.891h9.914v-3.586h9.07v3.586
		h7.453v-3.586h8.824v3.586h10.195v6.891h-10.195v3.023h9.105v12.691h-8.543V33.52h-26.191v6.609h-8.543V27.438h8.824v-3.023
		H157.625z M178.543,67.691c-2.93,2.016-6.141,3.762-9.633,5.238c2.391,0,4.406,0,6.047,0c2.766,0.188,4.055-1.007,3.867-3.586
		C178.824,68.781,178.73,68.231,178.543,67.691z M169.473,40.41v-4.711h21.762v4.711H169.473z M176.609,24.414v3.023h7.453v-3.023
		H176.609z M185.434,48.672c-1.641,0.727-3.293,1.547-4.957,2.461c1.102,1.289,2.109,2.672,3.023,4.148
		c0.938-0.375,2.227-1.02,3.867-1.934c4.055-1.828,7.09-3.387,9.105-4.676H185.434z"/>
	<path d="M220.695,82.07c-2.766,0-5.115-0.949-7.049-2.848s-2.9-4.196-2.9-6.891c0-2.648,0.961-4.916,2.883-6.803
		c1.922-1.886,4.277-2.83,7.066-2.83c2.719,0,5.051,0.938,6.996,2.813c1.945,1.875,2.918,4.148,2.918,6.82
		c0,2.719-0.979,5.021-2.936,6.908C225.717,81.126,223.391,82.07,220.695,82.07z M220.695,68.535c-1.102,0-2.016,0.364-2.742,1.09
		c-0.727,0.727-1.09,1.629-1.09,2.707c0,1.055,0.375,1.969,1.125,2.742s1.652,1.16,2.707,1.16c1.008,0,1.869-0.381,2.584-1.143
		c0.715-0.762,1.072-1.682,1.072-2.76s-0.357-1.98-1.072-2.707C222.564,68.899,221.703,68.535,220.695,68.535z"/>
	<polygon points="12.717,108.856 25.029,108.856 25.029,150.04 40.365,150.04 40.365,159.4 12.717,159.4 	"/>
	<polygon points="77.805,108.712 77.805,118.072 59.517,118.072 59.517,128.944 75.645,128.944 75.645,138.304 59.517,138.304 
		59.517,150.04 77.805,150.04 77.805,159.4 47.205,159.4 47.205,108.712 	"/>
	<polygon points="145.628,108.856 145.628,159.4 133.315,159.4 133.315,130.888 121.58,159.4 112.436,159.4 100.7,130.888 
		100.7,159.4 88.388,159.4 88.388,108.856 102.5,108.856 117.044,143.704 131.516,108.856 	"/>
	<path d="M160.999,152.56c-5.016-4.896-7.523-11.088-7.523-18.576s2.508-13.667,7.523-18.54c5.016-4.871,11.16-7.308,18.433-7.308
		c7.271,0,13.392,2.437,18.359,7.308c4.969,4.873,7.452,11.052,7.452,18.54s-2.496,13.68-7.488,18.576s-11.112,7.344-18.359,7.344
		C172.146,159.904,166.015,157.456,160.999,152.56z M189.079,144.568c2.424-2.639,3.637-6.167,3.637-10.584
		c0-4.416-1.213-7.944-3.637-10.584c-2.424-2.639-5.664-3.96-9.72-3.96c-4.057,0-7.297,1.321-9.72,3.96
		c-2.425,2.64-3.637,6.168-3.637,10.584c0,4.417,1.212,7.945,3.637,10.584c2.423,2.641,5.663,3.96,9.72,3.96
		C183.415,148.528,186.655,147.208,189.079,144.568z"/>
	<polygon points="246.066,108.712 258.379,108.712 258.379,159.4 246.066,159.4 225.475,127.504 225.475,159.4 213.163,159.4 
		213.163,108.712 225.475,108.712 246.066,140.608 	"/>
	<path d="M279.764,152.668c0,1.896-0.648,3.492-1.944,4.788c-1.296,1.296-2.893,1.944-4.788,1.944c-1.896,0-3.492-0.648-4.788-1.944
		c-1.296-1.296-1.944-2.892-1.944-4.788c0-1.896,0.648-3.492,1.944-4.788s2.892-1.944,4.788-1.944c1.896,0,3.492,0.648,4.788,1.944
		S279.764,150.772,279.764,152.668z"/>
</g>
</svg>
