<?xml version="1.0" encoding="utf-8"?>
<!-- Generator: Adobe Illustrator 15.0.0, SVG Export Plug-In . SVG Version: 6.00 Build 0)  -->
<!DOCTYPE svg PUBLIC "-//W3C//DTD SVG 1.1//EN" "http://www.w3.org/Graphics/SVG/1.1/DTD/svg11.dtd">
<svg version="1.1" id="图层_1" xmlns="http://www.w3.org/2000/svg" xmlns:xlink="http://www.w3.org/1999/xlink" x="0px" y="0px"
	 width="450.281px" height="70px" viewBox="0 8.445 450.281 70" enable-background="new 0 8.445 450.281 70" xml:space="preserve">
<g>
	<title>background</title>
	<rect id="canvas_background" x="-1" y="-1" fill="none" width="452.281" height="87.891"/>
</g>
<g>
	<title>Layer 1</title>
	<g id="svg_1">
		<polygon id="svg_2" points="6.79,22.112 19.102,22.112 19.102,63.296 34.438,63.296 34.438,72.656 6.79,72.656 		"/>
		<polygon id="svg_3" points="71.877,21.968 71.877,31.328 53.589,31.328 53.589,42.2 69.717,42.2 69.717,51.56 53.589,51.56 
			53.589,63.296 71.877,63.296 71.877,72.656 41.277,72.656 41.277,21.968 		"/>
		<polygon id="svg_4" points="139.701,22.112 139.701,72.656 127.389,72.656 127.389,44.144 115.652,72.656 106.508,72.656 
			94.772,44.144 94.772,72.656 82.46,72.656 82.46,22.112 96.573,22.112 111.117,56.96 125.588,22.112 		"/>
		<path id="svg_5" d="M155.072,65.816c-5.017-4.896-7.524-11.088-7.524-18.576s2.507-13.667,7.524-18.54
			c5.015-4.871,11.16-7.308,18.432-7.308s13.392,2.437,18.36,7.308c4.968,4.873,7.452,11.052,7.452,18.54s-2.496,13.68-7.488,18.576
			c-4.993,4.896-11.113,7.344-18.36,7.344C166.22,73.16,160.087,70.712,155.072,65.816L155.072,65.816z M183.152,57.824
			c2.423-2.639,3.636-6.167,3.636-10.584c0-4.416-1.213-7.944-3.636-10.584c-2.424-2.639-5.664-3.96-9.72-3.96
			c-4.057,0-7.297,1.321-9.72,3.96c-2.424,2.64-3.636,6.168-3.636,10.584c0,4.417,1.211,7.945,3.636,10.584
			c2.423,2.641,5.664,3.96,9.72,3.96C177.488,61.784,180.728,60.464,183.152,57.824z"/>
		<polygon id="svg_6" points="240.139,21.968 252.451,21.968 252.451,72.656 240.139,72.656 219.547,40.76 219.547,72.656 
			207.235,72.656 207.235,21.968 219.547,21.968 240.139,53.864 		"/>
		<path id="svg_7" d="M338.564,72.656l-2.811-8.496h-18.145l-2.807,8.496h-13.104l17.564-50.688h14.979l17.496,50.688H338.564z
			 M320.707,54.8h11.951l-5.977-18L320.707,54.8z"/>
		<path id="svg_8" d="M396.306,37.592c0,3.409-1.225,6.696-3.672,9.864c-1.297,1.633-3.229,2.964-5.797,3.996
			c-2.566,1.033-5.604,1.548-9.105,1.548h-7.635v19.656h-12.311V22.112h19.943c5.855,0,10.414,1.512,13.68,4.536
			C394.673,29.672,396.306,33.32,396.306,37.592z M370.097,43.64h7.635c1.869,0,3.348-0.552,4.428-1.656s1.619-2.557,1.619-4.356
			s-0.553-3.275-1.654-4.428c-1.105-1.152-2.568-1.728-4.393-1.728h-7.635V43.64z"/>
		<path id="svg_9" d="M442.24,37.592c0,3.409-1.223,6.696-3.672,9.864c-1.295,1.633-3.229,2.964-5.795,3.996
			c-2.568,1.033-5.605,1.548-9.109,1.548h-7.631v19.656H403.72V22.112h19.943c5.854,0,10.416,1.512,13.682,4.536
			C440.609,29.672,442.24,33.32,442.24,37.592L442.24,37.592z M416.033,43.64h7.631c1.873,0,3.35-0.552,4.43-1.656
			c1.078-1.104,1.619-2.557,1.619-4.356s-0.553-3.275-1.656-4.428s-2.566-1.728-4.393-1.728h-7.631V43.64L416.033,43.64z"/>
	</g>
</g>
</svg>
